<svg width="24" height="24" viewBox="0 0 24 24" fill="none" xmlns="http://www.w3.org/2000/svg">
<path fill-rule="evenodd" clip-rule="evenodd" d="M0 10.5214C0 4.71059 4.71059 0 10.5214 0C16.3322 0 21.0428 4.71059 21.0428 10.5214C21.0428 12.8577 20.2813 15.0161 18.993 16.762L24 21.769L21.7681 24.0009L16.761 18.9938C15.0152 20.2816 12.8572 21.0428 10.5214 21.0428C4.71059 21.0428 0 16.3322 0 10.5214ZM11.8366 18.3036C13.4442 18.0354 14.9256 17.2768 16.1012 16.1012C17.2768 14.9256 18.0354 13.4442 18.3036 11.8366H14.4669V9.20622H18.3036C18.0354 7.5985 17.2768 6.11716 16.1012 4.94156C14.9256 3.76596 13.4442 3.00735 11.8366 2.73918V6.57587H9.20622V2.73918C7.59854 3.00739 6.11721 3.76596 4.9416 4.94156C3.766 6.11721 3.00739 7.59854 2.73922 9.20622H6.57587V11.8366H2.73922C3.00739 13.4442 3.766 14.9256 4.94156 16.1012C6.11721 17.2769 7.59854 18.0354 9.20622 18.3036V14.4669H11.8366V18.3036Z" fill="black"/>
</svg>
